<svg width="203" height="85" viewBox="0 0 203 85" fill="none" xmlns="http://www.w3.org/2000/svg">
<g clip-path="url(#clip0_10302_110588)">
<path d="M10.0146 44.788H0V7.61816H15.8737C19.1791 7.61816 22.1338 9.66653 22.1338 14.5628V18.2597C22.1338 22.256 20.2305 23.8551 18.578 24.6546C20.3309 25.3041 22.2338 27.2025 22.2338 29.9499V41.8905C22.2338 43.0396 22.3841 43.9389 22.7345 44.5382V44.788H12.869C12.4682 44.2389 12.1679 43.3396 12.1679 42.3901V31.6487C12.1679 30.8492 12.0679 30.3001 11.1164 30.3001H10.0146V44.788ZM10.0146 22.3062H11.1164C11.8175 22.3062 12.1679 21.8569 12.1679 21.0072V16.0614C12.1679 15.1118 12.0175 14.7121 11.1664 14.7121H10.0146V22.3062Z" fill="black"/>
<path d="M120.054 7.0686C127.215 7.0686 129.518 10.6156 129.518 15.0123V18.414H119.853V15.562C119.853 14.7123 119.503 14.3132 118.852 14.3132C118.201 14.3132 117.85 14.7123 117.85 15.562V16.6609C117.85 17.8602 118.151 18.5097 119.353 19.3588L124.11 22.7062C128.317 25.6539 129.969 28.2018 129.969 33.1475V35.0961C129.969 41.0417 126.865 45.3379 119.553 45.3379H117.199C110.639 45.3379 107.384 42.4405 107.384 36.5947V32.1173H117.199V35.7959C117.199 36.7447 117.4 37.344 118.251 37.344C119.052 37.344 119.303 36.7447 119.303 35.6954V34.3468C119.303 32.7478 119.152 32.0487 117.55 30.8494L112.792 27.502C109.187 24.9541 107.684 21.9067 107.684 17.7604V15.8614C107.684 10.7656 110.689 7.0686 117.7 7.0686H120.054Z" fill="black"/>
<path d="M151.646 7.61816V16.5609H146.514V44.788H136.548V16.5609H131.415V7.61816H151.646Z" fill="black"/>
<path d="M116.497 47.2876V56.2303H111.364V84.4574H101.399V56.2303H96.2656V47.2876H116.497Z" fill="black"/>
<path d="M172.377 7.61816V16.5609H163.333V21.0072H170.825V30.1501H163.333V35.7455H172.377V44.788H153.567V7.61816H172.377Z" fill="black"/>
<path d="M184.215 7.61816L188.071 24.5046V7.61816H196.484V44.788H187.47L182.812 26.4532V44.788H174.299V7.61816H184.215Z" fill="black"/>
<path d="M10.0159 84.4574H0V47.2876H10.0159V59.178L13.321 47.2876H23.2869L18.5293 63.4743L23.3369 84.4574H12.9206L10.0159 70.8682V84.4574H10.0159Z" fill="black"/>
<path d="M58.0292 47.2876L61.885 64.174V47.2876H70.2983V84.4574H61.2842L56.6267 66.1226V84.4574H48.1133V47.2876H58.0292Z" fill="black"/>
<path d="M84.8896 46.7307C92.0508 46.7307 94.3544 50.2777 94.3544 54.6744V58.0761H84.6893V55.2242C84.6893 54.3744 84.3389 53.9753 83.6878 53.9753C83.0367 53.9753 82.686 54.3744 82.686 55.2242V56.323C82.686 57.5223 82.9867 58.1718 84.1885 59.0209L88.9461 62.3683C93.1526 65.316 94.8052 67.8639 94.8052 72.8096V74.7582C94.8052 80.7038 91.7005 85.0001 84.3889 85.0001H82.0353C75.4748 85.0001 72.2197 82.1026 72.2197 76.2568V71.7794H82.0353V75.458C82.0353 76.4068 82.2356 77.0061 83.0867 77.0061C83.8882 77.0061 84.1385 76.4068 84.1385 75.3575V74.0089C84.1385 72.4099 83.9882 71.7108 82.3856 70.5115L77.628 67.1641C74.0226 64.6162 72.5201 61.5688 72.5201 57.4225V55.5235C72.5201 50.4277 75.5248 46.7307 82.536 46.7307H84.8896Z" fill="black"/>
<path d="M128.434 84.4574H118.418V47.2876H128.434V59.9775H130.587V47.2876H140.603V84.4574H130.587V70.2193H128.434V84.4574Z" fill="black"/>
<path d="M178.242 47.2876V75.2154H184.653V84.4574H168.227V47.2876H178.242Z" fill="black"/>
<path d="M196.59 47.2876V75.2154H203V84.4574H186.574V47.2876H196.59Z" fill="black"/>
<path d="M47.1885 34.0971C47.1885 41.491 42.8316 45.3379 36.5719 45.3379H34.819C27.9581 45.3379 24.1523 41.341 24.1523 34.0971V18.6597C24.1523 11.5149 27.3574 7.0686 34.819 7.0686H36.5219C43.9334 7.0686 47.1885 11.6649 47.1885 18.6597V34.0971ZM36.8722 17.4604C36.8722 16.3113 36.6219 15.7616 35.6704 15.7616C34.9193 15.7616 34.5186 16.3113 34.5186 17.4604V34.9964C34.5186 36.0457 34.9193 36.5452 35.6704 36.5452C36.4719 36.5452 36.8722 36.0457 36.8722 34.9964V17.4604Z" fill="black"/>
<path d="M46.1914 73.7592C46.1914 81.1531 41.8346 85.0001 35.5748 85.0001H33.8219C26.9611 85.0001 23.1553 81.0031 23.1553 73.7592V58.3218C23.1553 51.177 26.3603 46.7307 33.8219 46.7307H35.5248C42.9364 46.7307 46.1914 51.327 46.1914 58.3218V73.7592ZM35.8752 57.1225C35.8752 55.9735 35.6248 55.4237 34.6733 55.4237C33.9223 55.4237 33.5215 55.9735 33.5215 57.1225V74.6585C33.5215 75.7078 33.9223 76.2073 34.6733 76.2073C35.4748 76.2073 35.8752 75.7078 35.8752 74.6585V57.1225Z" fill="black"/>
<path d="M91.4089 7.61816H78.3403L72.9316 44.788H82.5968L83.0475 40.1918H86.7016L87.1524 44.788H96.8176L91.4089 7.61816ZM83.4742 31.8647L84.8746 16.7413L86.275 31.8647H83.4742Z" fill="black"/>
<path d="M160.957 47.2876H147.888L142.479 84.4574H152.145L152.595 79.8612H156.249L156.7 84.4574H166.365L160.957 47.2876ZM153.022 71.5342L154.422 56.4107L155.823 71.5342H153.022Z" fill="black"/>
<path d="M49.1113 7.61816H64.409C68.6655 7.61816 72.1213 9.76629 72.1213 16.0614V35.8955C72.1213 42.2401 68.7159 44.788 64.509 44.788H49.1113V7.61816ZM59.4863 36.6448H60.4377C61.3892 36.6448 61.6395 36.0455 61.6395 34.6962V17.3604C61.6395 16.2114 61.3892 15.5618 60.4377 15.5618H59.4863V36.6448Z" fill="black"/>
<path d="M34.4988 0H26.1543V5.45951H34.4988V0Z" fill="black"/>
<path d="M45.2547 0H36.9102V5.45951H45.2547V0Z" fill="black"/>
</g>
<defs>
<clipPath id="clip0_10302_110588">
<rect width="203" height="85" fill="white"/>
</clipPath>
</defs>
</svg>
